<svg id="visual" viewBox="0 0 900 900" width="900" height="900" xmlns="http://www.w3.org/2000/svg" xmlns:xlink="http://www.w3.org/1999/xlink" version="1.1"><rect x="0" y="0" width="900" height="900" fill="#f4f3f6"></rect><defs><linearGradient id="grad1_0" x1="0%" y1="100%" x2="100%" y2="0%"><stop offset="30%" stop-color="#abc7ff" stop-opacity="1"></stop><stop offset="70%" stop-color="#abc7ff" stop-opacity="1"></stop></linearGradient></defs><defs><linearGradient id="grad1_1" x1="0%" y1="100%" x2="100%" y2="0%"><stop offset="30%" stop-color="#abc7ff" stop-opacity="1"></stop><stop offset="70%" stop-color="#d9dbfa" stop-opacity="1"></stop></linearGradient></defs><defs><linearGradient id="grad1_2" x1="0%" y1="100%" x2="100%" y2="0%"><stop offset="30%" stop-color="#f4f3f6" stop-opacity="1"></stop><stop offset="70%" stop-color="#d9dbfa" stop-opacity="1"></stop></linearGradient></defs><defs><linearGradient id="grad2_0" x1="0%" y1="100%" x2="100%" y2="0%"><stop offset="30%" stop-color="#abc7ff" stop-opacity="1"></stop><stop offset="70%" stop-color="#abc7ff" stop-opacity="1"></stop></linearGradient></defs><defs><linearGradient id="grad2_1" x1="0%" y1="100%" x2="100%" y2="0%"><stop offset="30%" stop-color="#d9dbfa" stop-opacity="1"></stop><stop offset="70%" stop-color="#abc7ff" stop-opacity="1"></stop></linearGradient></defs><defs><linearGradient id="grad2_2" x1="0%" y1="100%" x2="100%" y2="0%"><stop offset="30%" stop-color="#d9dbfa" stop-opacity="1"></stop><stop offset="70%" stop-color="#f4f3f6" stop-opacity="1"></stop></linearGradient></defs><g transform="translate(900, 900)"><path d="M-572.8 0C-540.6 -66.8 -508.5 -133.7 -480.4 -199C-452.3 -264.3 -428.2 -328.1 -386.8 -386.8C-345.3 -445.5 -286.5 -499 -219.2 -529.2C-151.8 -559.3 -75.9 -566 0 -572.8L0 0Z" fill="#e9e6f7"></path><path d="M-381.8 0C-360.4 -44.6 -339 -89.1 -320.3 -132.7C-301.5 -176.2 -285.5 -218.7 -257.9 -257.9C-230.2 -297 -191 -332.7 -146.1 -352.8C-101.2 -372.9 -50.6 -377.4 0 -381.8L0 0Z" fill="#c5d0fc"></path><path d="M-190.9 0C-180.2 -22.3 -169.5 -44.6 -160.1 -66.3C-150.8 -88.1 -142.7 -109.4 -128.9 -128.9C-115.1 -148.5 -95.5 -166.3 -73.1 -176.4C-50.6 -186.4 -25.3 -188.7 0 -190.9L0 0Z" fill="#abc7ff"></path></g><g transform="translate(0, 0)"><path d="M572.8 0C519.4 60.7 466.1 121.4 432.4 179.1C398.6 236.7 384.4 291.3 355 355C325.5 418.6 280.9 491.3 219.2 529.2C157.5 567 78.7 569.9 0 572.8L0 0Z" fill="#e9e6f7"></path><path d="M381.8 0C346.3 40.5 310.8 81 288.3 119.4C265.7 157.8 256.3 194.2 236.6 236.6C217 279.1 187.3 327.6 146.1 352.8C105 378 52.5 379.9 0 381.8L0 0Z" fill="#c5d0fc"></path><path d="M190.9 0C173.1 20.2 155.4 40.5 144.1 59.7C132.9 78.9 128.1 97.1 118.3 118.3C108.5 139.5 93.6 163.8 73.1 176.4C52.5 189 26.2 190 0 190.9L0 0Z" fill="#abc7ff"></path></g></svg>