<svg id="visual" viewBox="0 0 540 960" width="540" height="960" xmlns="http://www.w3.org/2000/svg" xmlns:xlink="http://www.w3.org/1999/xlink" version="1.1"><rect x="0" y="0" width="540" height="960" fill="#faf9fd"></rect><path d="M0 704L12.8 709.7C25.7 715.3 51.3 726.7 77 728.7C102.7 730.7 128.3 723.3 154 720C179.7 716.7 205.3 717.3 231.2 714C257 710.7 283 703.3 308.8 691.8C334.7 680.3 360.3 664.7 386 668.3C411.7 672 437.3 695 463 695C488.7 695 514.3 672 527.2 660.5L540 649L540 961L527.2 961C514.3 961 488.7 961 463 961C437.3 961 411.7 961 386 961C360.3 961 334.7 961 308.8 961C283 961 257 961 231.2 961C205.3 961 179.7 961 154 961C128.3 961 102.7 961 77 961C51.3 961 25.7 961 12.8 961L0 961Z" fill="#e0eafc"></path><path d="M0 801L12.8 790.3C25.7 779.7 51.3 758.3 77 760.7C102.7 763 128.3 789 154 797.7C179.7 806.3 205.3 797.7 231.2 788.5C257 779.3 283 769.7 308.8 764.8C334.7 760 360.3 760 386 773.2C411.7 786.3 437.3 812.7 463 816.5C488.7 820.3 514.3 801.7 527.2 792.3L540 783L540 961L527.2 961C514.3 961 488.7 961 463 961C437.3 961 411.7 961 386 961C360.3 961 334.7 961 308.8 961C283 961 257 961 231.2 961C205.3 961 179.7 961 154 961C128.3 961 102.7 961 77 961C51.3 961 25.7 961 12.8 961L0 961Z" fill="#d8e4f8"></path><path d="M0 855L12.8 862.8C25.7 870.7 51.3 886.3 77 881.8C102.7 877.3 128.3 852.7 154 846.3C179.7 840 205.3 852 231.2 859.8C257 867.7 283 871.3 308.8 879C334.7 886.7 360.3 898.3 386 895.3C411.7 892.3 437.3 874.7 463 873.8C488.7 873 514.3 889 527.2 897L540 905L540 961L527.2 961C514.3 961 488.7 961 463 961C437.3 961 411.7 961 386 961C360.3 961 334.7 961 308.8 961C283 961 257 961 231.2 961C205.3 961 179.7 961 154 961C128.3 961 102.7 961 77 961C51.3 961 25.7 961 12.8 961L0 961Z" fill="#cfdef3"></path></svg>