<svg id="visual" viewBox="0 0 450 900" width="450" height="900" xmlns="http://www.w3.org/2000/svg" xmlns:xlink="http://www.w3.org/1999/xlink" version="1.1"><rect x="0" y="0" width="450" height="900" fill="#faf9fd"></rect><defs><linearGradient id="grad1_0" x1="0%" y1="100%" x2="100%" y2="0%"><stop offset="30%" stop-color="#abc7ff" stop-opacity="1"></stop><stop offset="70%" stop-color="#abc7ff" stop-opacity="1"></stop></linearGradient></defs><defs><linearGradient id="grad1_1" x1="0%" y1="100%" x2="100%" y2="0%"><stop offset="30%" stop-color="#abc7ff" stop-opacity="1"></stop><stop offset="70%" stop-color="#dbdefd" stop-opacity="1"></stop></linearGradient></defs><defs><linearGradient id="grad1_2" x1="0%" y1="100%" x2="100%" y2="0%"><stop offset="30%" stop-color="#faf9fd" stop-opacity="1"></stop><stop offset="70%" stop-color="#dbdefd" stop-opacity="1"></stop></linearGradient></defs><defs><linearGradient id="grad2_0" x1="0%" y1="100%" x2="100%" y2="0%"><stop offset="30%" stop-color="#abc7ff" stop-opacity="1"></stop><stop offset="70%" stop-color="#abc7ff" stop-opacity="1"></stop></linearGradient></defs><defs><linearGradient id="grad2_1" x1="0%" y1="100%" x2="100%" y2="0%"><stop offset="30%" stop-color="#dbdefd" stop-opacity="1"></stop><stop offset="70%" stop-color="#abc7ff" stop-opacity="1"></stop></linearGradient></defs><defs><linearGradient id="grad2_2" x1="0%" y1="100%" x2="100%" y2="0%"><stop offset="30%" stop-color="#dbdefd" stop-opacity="1"></stop><stop offset="70%" stop-color="#faf9fd" stop-opacity="1"></stop></linearGradient></defs><g transform="translate(450, 900)"><path d="M-450 0C-445.3 -61 -440.6 -121.9 -415.7 -172.2C-390.9 -222.5 -345.9 -262.1 -303.3 -303.3C-260.8 -344.6 -220.8 -387.3 -170.7 -412.1C-120.5 -436.8 -60.3 -443.4 0 -450L0 0Z" fill="#ecebfd"></path><path d="M-300 0C-296.9 -40.6 -293.7 -81.3 -277.2 -114.8C-260.6 -148.3 -230.6 -174.8 -202.2 -202.2C-173.9 -229.7 -147.2 -258.2 -113.8 -274.7C-80.4 -291.2 -40.2 -295.6 0 -300L0 0Z" fill="#c5d2fe"></path><path d="M-150 0C-148.4 -20.3 -146.9 -40.6 -138.6 -57.4C-130.3 -74.2 -115.3 -87.4 -101.1 -101.1C-86.9 -114.9 -73.6 -129.1 -56.9 -137.4C-40.2 -145.6 -20.1 -147.8 0 -150L0 0Z" fill="#abc7ff"></path></g><g transform="translate(0, 0)"><path d="M450 0C443.6 58.7 437.2 117.4 415.7 172.2C394.3 227 357.8 278 312.5 312.5C267.2 347.1 213.1 365.1 159.6 385.3C106 405.4 53 427.7 0 450L0 0Z" fill="#ecebfd"></path><path d="M300 0C295.7 39.1 291.5 78.2 277.2 114.8C262.9 151.4 238.6 185.4 208.4 208.4C178.2 231.4 142.1 243.4 106.4 256.8C70.7 270.3 35.3 285.1 0 300L0 0Z" fill="#c5d2fe"></path><path d="M150 0C147.9 19.6 145.7 39.1 138.6 57.4C131.4 75.7 119.3 92.7 104.2 104.2C89.1 115.7 71 121.7 53.2 128.4C35.3 135.1 17.7 142.6 0 150L0 0Z" fill="#abc7ff"></path></g></svg>